<svg width="20" height="28" viewBox="0 0 20 28" fill="none" xmlns="http://www.w3.org/2000/svg">
<path fill-rule="evenodd" clip-rule="evenodd" d="M1.14706 0.5C1.78056 0.5 2.29412 1.01356 2.29412 1.64706V8.375H3.44118V1.64706C3.44118 1.01356 3.95473 0.5 4.58824 0.5C5.22174 0.5 5.73529 1.01356 5.73529 1.64706V8.375H6.88235V9.50207L6.88235 9.5V1.64706C6.88235 1.01356 7.39591 0.5 8.02941 0.5C8.66292 0.5 9.17647 1.01356 9.17647 1.64706V9.5C9.17647 11.5968 7.71423 13.3587 5.73529 13.8582V27.5H3.44118V13.8582C1.46224 13.3587 0 11.5968 0 9.5V1.64706C0 1.01356 0.513556 0.5 1.14706 0.5ZM19.5 8.375C19.5 11.2225 18.0378 13.2691 16.0588 13.8394V27.5H13.7647V13.8394C11.7858 13.2691 10.3235 11.2225 10.3235 8.375C10.3235 4.64708 11.4706 0.5 14.9118 0.5C18.3529 0.5 19.5 4.64708 19.5 8.375Z" fill="#9D9D9D"/>
</svg>
